<svg width="82" height="34" viewBox="0 0 82 34" fill="none" xmlns="http://www.w3.org/2000/svg">
<g clip-path="url(#clip0_2007_380)">
<path d="M82 21.733V24.7794H68.8623V12.7896H73.0909V21.733H82Z" fill="#101820"/>
<path d="M16.5693 12.7896V15.8374H21.3111V24.7809H21.3141H25.3769H25.3817V15.8374H30.5628V12.7896H16.5693Z" fill="#101820"/>
<path d="M65.1204 20.2295V17.341H56.2083V15.8359H65.1204V12.7896H52.1409V24.7794H65.1204V21.733H56.2083V20.2295H65.1204Z" fill="#101820"/>
<path d="M0 24.7807H4.48831L9.34221 18.5413L14.1946 24.7807H18.6829L9.34221 12.7722L0 24.7807Z" fill="#101820"/>
<path d="M40.9816 3.73979C43.2069 3.74034 45.3949 4.32156 47.3366 5.42791C49.2781 6.53424 50.9085 8.12872 52.0719 10.059H56.2345C54.9184 7.06352 52.7781 4.51973 50.0725 2.73477C47.3667 0.949814 44.2108 0 40.9863 0C37.7615 0 34.6059 0.949814 31.9001 2.73477C29.1942 4.51973 27.0541 7.06352 25.738 10.059H29.899C31.0616 8.12974 32.6908 6.53589 34.6309 5.4296C36.5712 4.32332 38.7575 3.74154 40.9816 3.73979ZM40.9816 30.2608C37.791 30.2608 34.7123 29.0633 32.3353 26.8973H27.4061C28.951 29.0942 30.9885 30.8846 33.3496 32.1199C35.7108 33.3549 38.3274 33.9993 40.9824 33.9993C43.6373 33.9993 46.254 33.3549 48.6151 32.1199C50.9763 30.8846 53.0139 29.0942 54.5588 26.8973H49.6311C47.2532 29.0638 44.1735 30.2614 40.9816 30.2608Z" fill="#A6192E"/>
<path d="M50.3254 12.7896H45.8356L40.9832 19.0291L36.1293 12.7896H31.6426L40.9832 24.7997L50.3254 12.7896Z" fill="#A6192E"/>
</g>
<defs>
<clipPath id="clip0_2007_380">
<rect width="82" height="34" fill="white"/>
</clipPath>
</defs>
</svg>
