<svg width="82" height="34" viewBox="0 0 82 34" fill="none" xmlns="http://www.w3.org/2000/svg">
<g clip-path="url(#clip0_134_10494)">
<path d="M82 21.733V24.7794H68.8623V12.7896H73.0909V21.733H82Z" fill="white"/>
<path d="M16.5693 12.7896V15.8374H21.311V24.7809H21.314H25.3769H25.3816V15.8374H30.5627V12.7896H16.5693Z" fill="white"/>
<path d="M65.1204 20.2295V17.341H56.2083V15.8359H65.1204V12.7896H52.1409V24.7794H65.1204V21.733H56.2083V20.2295H65.1204Z" fill="white"/>
<path d="M0 24.7809H4.48831L9.34221 18.5416L14.1946 24.7809H18.6829L9.34221 12.7725L0 24.7809Z" fill="white"/>
<path d="M40.9815 3.73979C43.2069 3.74034 45.3948 4.32156 47.3365 5.42791C49.2781 6.53424 50.9084 8.12872 52.0719 10.059H56.2344C54.9183 7.06352 52.778 4.51973 50.0724 2.73477C47.3667 0.949814 44.2107 0 40.9863 0C37.7614 0 34.6059 0.949814 31.9 2.73477C29.1941 4.51973 27.0541 7.06352 25.738 10.059H29.8989C31.0615 8.12974 32.6908 6.53589 34.6309 5.4296C36.5711 4.32332 38.7575 3.74154 40.9815 3.73979ZM40.9815 30.2608C37.7909 30.2608 34.7122 29.0633 32.3353 26.8973H27.406C28.9509 29.0942 30.9885 30.8846 33.3496 32.1199C35.7108 33.3549 38.3274 33.9993 40.9823 33.9993C43.6373 33.9993 46.254 33.3549 48.615 32.1199C50.9763 30.8846 53.0138 29.0942 54.5587 26.8973H49.6311C47.2532 29.0638 44.1734 30.2614 40.9815 30.2608Z" fill="#A6192E"/>
<path d="M50.3252 12.7896H45.8355L40.9831 19.0291L36.1292 12.7896H31.6425L40.9831 24.7997L50.3252 12.7896Z" fill="#A6192E"/>
</g>
<defs>
<clipPath id="clip0_134_10494">
<rect width="82" height="34" fill="white"/>
</clipPath>
</defs>
</svg>
