<svg width="99" height="22" viewBox="0 0 99 22" fill="none" xmlns="http://www.w3.org/2000/svg">
<path d="M24.3903 7.10987C26.1065 7.33129 27.493 8.74198 27.7119 10.4897C27.7884 11.0862 27.7291 11.6926 27.5388 12.2621C27.3484 12.8316 27.032 13.349 26.6139 13.7744C26.1959 14.1998 25.6874 14.5217 25.1276 14.7154C24.5679 14.9091 23.9719 14.9694 23.3857 14.8916C21.6681 14.6688 20.2816 13.2581 20.064 11.5118C19.9876 10.9153 20.0468 10.3089 20.2372 9.7394C20.4276 9.16988 20.744 8.65248 21.1621 8.22711C21.5801 7.80175 22.0886 7.47978 22.6483 7.28607C23.208 7.09236 23.804 7.03208 24.3903 7.10987ZM24.6243 18.3174C26.2767 18.1404 27.8192 17.3916 28.9941 16.1962C30.1689 15.0008 30.9048 13.4312 31.0788 11.75C31.5318 7.09873 27.7215 3.22178 23.1489 3.68272C21.4968 3.86001 19.9546 4.60894 18.78 5.80432C17.6054 6.9997 16.8697 8.56909 16.6958 10.2501C16.2428 14.9014 20.0531 18.7783 24.6243 18.3174ZM34.9575 18.0263H45.5384C45.9407 18.0263 46.1679 17.5584 45.9257 17.2326L38.6049 7.4051H44.3408C45.3864 7.4051 46.209 6.43725 45.9927 5.33433C45.834 4.52524 45.0881 3.97377 44.2778 3.97377H32.7868C32.3885 3.97377 32.1627 4.4375 32.4022 4.75919L39.7285 14.595H35.0204C34.2102 14.595 33.4643 15.1479 33.3055 15.9556C33.0879 17.0585 33.9118 18.0263 34.9575 18.0263ZM80.8764 17.9873C81.9686 18.2213 82.9293 17.3802 82.9293 16.3107V4.46953C82.9293 4.05594 82.4599 3.82616 82.1424 4.08239L73.015 11.4506V5.68665C73.015 4.61715 72.0542 3.77603 70.962 4.00998C70.1792 4.17709 69.6427 4.91934 69.6427 5.73261V17.532C69.6427 17.9456 70.1121 18.1753 70.4296 17.9191L79.5584 10.5509V16.2647C79.5584 17.078 80.0963 17.8188 80.8778 17.9873H80.8764ZM57.1101 18.355C62.6982 18.355 67.2284 15.0629 67.2284 11.0021C67.2284 6.94137 62.6982 3.6493 57.1101 3.6493C51.522 3.6493 46.9918 6.94137 46.9918 11.0021C46.9918 15.0629 51.522 18.355 57.1101 18.355ZM57.1101 14.9237C53.2492 14.9237 50.3641 12.8529 50.3641 11.0021C50.3641 9.1514 53.2492 7.08063 57.1101 7.08063C60.971 7.08063 63.8561 9.15001 63.8561 11.0021C63.8561 12.8543 60.971 14.9237 57.1101 14.9237Z" fill="#005BFF"/>
</svg>
