<svg width="72" height="67" viewBox="0 0 72 67" fill="none" xmlns="http://www.w3.org/2000/svg">
<rect y="33.8411" width="59" height="40" rx="10" transform="rotate(-35 0 33.8411)" fill="#D7FF01"/>
<path fill-rule="evenodd" clip-rule="evenodd" d="M52.426 27.3139C52.3646 28.4181 51.3481 29.8868 51.3481 29.8868L43.7281 40.7285L41.8202 38.0038L47.4433 30.0469C48.0803 29.1422 47.9065 28.6155 47.0537 28.8723C46.2017 29.1275 44.9954 30.07 44.3588 30.9764L40.5974 36.2575L38.6174 33.4298L38.837 33.1294C38.837 33.1294 39.9222 31.6008 41.7969 29.9497C43.6726 28.2999 46.3425 26.8128 48.8203 26.1908C51.5146 25.3497 52.4869 26.2102 52.426 27.3139ZM38.0097 30.494L33.1307 23.526C32.5577 22.7076 31.8804 22.0591 30.9691 22.3794C30.2538 22.5996 30.274 23.3991 30.8465 24.2168L43.0648 41.6663L37.3491 43.4425L22.7809 22.637C25.0266 21.6181 28.5341 20.4707 30.4591 19.9101C35.3719 18.5092 37.9052 19.2733 40.5919 23.1103C43.2107 26.8503 41.9122 29.8719 38.0097 30.494ZM27.4966 47.6088C24.7856 48.5506 23.4727 47.4768 23.9641 45.9845C24.4187 44.606 25.664 42.9361 25.664 42.9361L30.6798 35.8484L32.595 38.5836L28.9935 43.6952C28.3579 44.5989 28.5321 45.1263 29.3836 44.8705C30.2357 44.6141 31.4432 43.6718 32.0796 42.7665L33.7989 40.303L35.5124 42.7501C35.3843 42.879 35.2392 43.0197 35.106 43.1511C33.0608 45.1504 30.4873 46.7157 27.4966 47.6088Z" fill="black"/>
</svg>
