<svg width="105" height="22" viewBox="0 0 105 22" fill="none" xmlns="http://www.w3.org/2000/svg">
<path d="M13.4753 16.5595L10.9443 6.99316H12.6202L14.5697 14.3384L16.6561 6.99316H18.2123L20.2986 14.3734L22.2481 6.99316H23.9069L21.3759 16.5595H19.4435L17.4085 9.4241L15.3906 16.5595H13.4753Z" fill="#BE11A5"/>
<path d="M25.0703 6.99316H26.6607V16.5595H25.0703V6.99316Z" fill="#BE11A5"/>
<path d="M30.0288 15.0556H33.8766V16.5596H28.4727V7.01074H30.0288V15.0556Z" fill="#BE11A5"/>
<path d="M38.7681 7.01073C39.9822 6.97575 41.1622 7.48293 42.0001 8.39234C43.7273 10.2986 43.7273 13.2717 42.0001 15.178C41.1622 16.0874 39.9822 16.5946 38.7681 16.5596H35.04V7.01073H38.7681ZM38.7681 15.0556C39.6573 15.0556 40.3926 14.7408 40.9399 14.1287C41.5213 13.4991 41.8291 12.6421 41.7949 11.7852C41.8291 10.9107 41.5213 10.0713 40.9399 9.44167C40.3755 8.82956 39.5889 8.47979 38.7681 8.51476H36.5962V15.0556H38.7681Z" fill="#BE11A5"/>
<path d="M51.6446 13.8314C51.6617 14.5659 51.3539 15.283 50.8238 15.7727C50.2765 16.2973 49.5583 16.5771 48.8059 16.5596H44.7529V7.01078H48.5151C49.2334 6.99329 49.9345 7.27312 50.4818 7.7628C51.0119 8.235 51.3026 8.93455 51.2855 9.65159C51.3197 10.4211 50.9435 11.1556 50.3278 11.5928C51.1487 12.0126 51.6617 12.887 51.6446 13.8314ZM46.3091 8.47984V10.9982H48.5151C49.1992 10.9982 49.7464 10.4386 49.7464 9.73903C49.7464 9.03948 49.1992 8.47984 48.5151 8.47984H46.3091ZM48.8059 15.0731C49.5241 15.0381 50.0884 14.426 50.0542 13.6915C50.0371 12.9919 49.4728 12.4323 48.8059 12.4148H46.3091V15.0906L48.8059 15.0731Z" fill="#BE11A5"/>
<path d="M54.689 15.0556H58.8787V16.5596H53.1328V7.01074H58.8103V8.51478H54.689V10.9982H58.4854V12.4847H54.689V15.0556Z" fill="#BE11A5"/>
<path d="M65.6676 16.5594L63.6497 13.0792H61.8199V16.5594H60.2637V6.99309H64.0601C64.8638 6.9756 65.6505 7.30789 66.2148 7.9025C66.7962 8.46214 67.1212 9.24914 67.1041 10.0711C67.087 11.2953 66.3516 12.3971 65.223 12.8343L67.3777 16.5594H65.6676ZM61.8199 8.47963V11.6801H64.043C64.898 11.6451 65.565 10.8931 65.5308 10.0012C65.4966 9.17918 64.8467 8.51461 64.043 8.47963H61.8199Z" fill="#BE11A5"/>
<path d="M73.962 16.5594L71.9612 13.0792H70.1314V16.5594H68.5752V6.99309H72.3716C73.1754 6.9756 73.962 7.30789 74.5263 7.9025C75.1078 8.46214 75.4327 9.24914 75.4156 10.0711C75.3985 11.2953 74.6631 12.3971 73.5345 12.8343L75.6892 16.5594H73.962ZM70.1314 8.47963V11.6801H72.3545C73.2267 11.6276 73.8765 10.8756 73.8252 9.98366C73.7739 9.17918 73.1412 8.51461 72.3545 8.47963H70.1314Z" fill="#BE11A5"/>
<path d="M76.8174 6.99316H78.3736V16.5595H76.8174V6.99316Z" fill="#BE11A5"/>
<path d="M81.7603 15.0556H85.95V16.5596H80.2041V7.01074H85.8816V8.51478H81.7603V10.9982H85.5567V12.4847H81.7603V15.0556Z" fill="#BE11A5"/>
<path d="M87.0439 14.391L88.3949 13.604C88.7711 14.6883 89.5578 15.2129 90.7378 15.2129C91.9177 15.2129 92.4992 14.7058 92.4992 13.9537C92.5163 13.604 92.3281 13.2542 92.0203 13.0793C91.7125 12.8694 91.1482 12.6421 90.3444 12.3972C89.4381 12.1174 88.9935 11.9425 88.3607 11.5228C87.728 11.1031 87.4373 10.456 87.4373 9.59905C87.4031 8.82954 87.7451 8.07752 88.3265 7.58784C88.9251 7.08066 89.6946 6.81833 90.4812 6.83582C91.9006 6.78336 93.2003 7.62282 93.7817 8.93447L92.4821 9.68649C92.0887 8.81205 91.4218 8.35735 90.4983 8.35735C89.5749 8.35735 89.0106 8.81205 89.0106 9.54658C89.0106 10.2811 89.4723 10.5784 90.9259 11.0331C91.285 11.1555 91.5415 11.243 91.7125 11.3129C91.8835 11.3829 92.1229 11.4703 92.4137 11.5928C92.6531 11.6802 92.8925 11.8201 93.0977 11.9775C93.5936 12.3798 94.1408 13.0268 94.0724 13.9363C94.1066 14.7407 93.7646 15.4928 93.149 15.9999C92.5334 16.5071 91.7296 16.7519 90.7207 16.7519C88.8566 16.7345 87.5228 15.8425 87.0439 14.391Z" fill="#BE11A5"/>
</svg>
