<svg width="88" height="17" viewBox="0 0 88 17" fill="none" xmlns="http://www.w3.org/2000/svg">
<path d="M8 0.752686L9.79611 6.28055H15.6085L10.9062 9.69696L12.7023 15.2248L8 11.8084L3.29772 15.2248L5.09383 9.69696L0.391548 6.28055H6.20389L8 0.752686Z" fill="#101820"/>
<path d="M26 0.752686L27.7961 6.28055H33.6085L28.9062 9.69696L30.7023 15.2248L26 11.8084L21.2977 15.2248L23.0938 9.69696L18.3915 6.28055H24.2039L26 0.752686Z" fill="#101820"/>
<path d="M44 0.752686L45.7961 6.28055H51.6085L46.9062 9.69696L48.7023 15.2248L44 11.8084L39.2977 15.2248L41.0938 9.69696L36.3915 6.28055H42.2039L44 0.752686Z" fill="#C8C9C7"/>
<mask id="mask0_2067_5831" style="mask-type:alpha" maskUnits="userSpaceOnUse" x="36" y="0" width="16" height="16">
<path d="M44 0.752686L45.7961 6.28055H51.6085L46.9062 9.69696L48.7023 15.2248L44 11.8084L39.2977 15.2248L41.0938 9.69696L36.3915 6.28055H42.2039L44 0.752686Z" fill="#101820"/>
</mask>
<g mask="url(#mask0_2067_5831)">
<rect x="28" y="0.752686" width="16" height="16" fill="#101820"/>
</g>
<path d="M62 0.752686L63.7961 6.28055H69.6085L64.9062 9.69696L66.7023 15.2248L62 11.8084L57.2977 15.2248L59.0938 9.69696L54.3915 6.28055H60.2039L62 0.752686Z" fill="#C8C9C7"/>
<path d="M80 0.752686L81.7961 6.28055H87.6085L82.9062 9.69696L84.7023 15.2248L80 11.8084L75.2977 15.2248L77.0938 9.69696L72.3915 6.28055H78.2039L80 0.752686Z" fill="#C8C9C7"/>
</svg>
