<?xml version="1.0" encoding="utf-8"?><svg xmlns="http://www.w3.org/2000/svg" xmlns:xlink="http://www.w3.org/1999/xlink"><symbol viewBox="0 0 12 12" id="Traced_Image" xmlns="http://www.w3.org/2000/svg">
    <path d="M9 8.04c-.38 0-.72.15-.98.385L4.455 6.35c.025-.115.045-.23.045-.35 0-.12-.02-.235-.045-.35L7.98 3.595A1.498 1.498 0 0010.5 2.5C10.5 1.67 9.83 1 9 1s-1.5.67-1.5 1.5c0 .12.02.235.045.35L4.02 4.905A1.498 1.498 0 001.5 6a1.498 1.498 0 002.52 1.095l3.56 2.08a1.41 1.41 0 00-.04.325c0 .805.655 1.46 1.46 1.46.805 0 1.46-.655 1.46-1.46 0-.805-.655-1.46-1.46-1.46z"/>
</symbol><symbol viewBox="0 0 18 18" id="arrow_down" xmlns="http://www.w3.org/2000/svg">
    <path d="M5.558 6.442L9 9.877l3.443-3.435L13.5 7.5 9 12 4.5 7.5l1.058-1.058z"/>
</symbol><symbol fill="none" viewBox="0 0 18 19" id="arrow_left" xmlns="http://www.w3.org/2000/svg">
    <path d="M16.382 9.553H1.618m0 0l5.201 5.2m-5.201-5.2l5.13-5.13" stroke-width="1.5"/>
</symbol><symbol fill="none" viewBox="0 0 24 25" id="arrow_link" xmlns="http://www.w3.org/2000/svg">
    <path d="M6.78 17.973l10.44-10.44m0 0H9.865m7.355 0v7.254" stroke-width="1.5"/>
</symbol><symbol fill="none" viewBox="0 0 18 19" id="arrow_right" xmlns="http://www.w3.org/2000/svg">
    <path d="M1.618 9.553h14.764m0 0l-5.201-5.201m5.201 5.2l-5.13 5.13" stroke-width="1.5"/>
</symbol><symbol viewBox="0 0 15 14" id="basket" xmlns="http://www.w3.org/2000/svg">
    <path fill-rule="evenodd" clip-rule="evenodd" d="M5.165 2.434c-.2.316-.604.98-.9 1.476l-.536.903H2.556c-1.061 0-1.184.02-1.29.218a.461.461 0 00.353.676c.232.033.268.175.664 2.606.237 1.457.502 2.736.612 2.953.107.21.387.492.622.627.42.239.505.244 3.983.244s3.564-.005 3.983-.244c.235-.135.515-.417.622-.627.11-.217.375-1.496.612-2.953.396-2.43.432-2.573.664-2.606a.461.461 0 00.353-.676c-.105-.198-.229-.218-1.29-.218h-1.172l-.857-1.43c-.472-.786-.933-1.458-1.026-1.494-.228-.087-.514.107-.555.377-.018.122.262.709.63 1.316.363.603.661 1.126.661 1.163 0 .037-1.181.068-2.625.068s-2.625-.03-2.625-.068c0-.037.295-.556.656-1.153.67-1.11.756-1.37.525-1.601-.264-.264-.526-.134-.89.443zm-.264 4.584c-.093.093-.135.554-.135 1.467 0 1.43.086 1.67.544 1.524.218-.07.226-.137.197-1.568-.029-1.403-.044-1.498-.25-1.527a.47.47 0 00-.356.104zm2.293.004c-.087.087-.131.562-.131 1.414 0 1.02.035 1.318.171 1.455.216.216.316.216.532 0 .136-.137.172-.435.172-1.455 0-1.306-.068-1.545-.438-1.545a.502.502 0 00-.306.13zm2.348-.058c-.04.04-.073.725-.073 1.523 0 1.367.013 1.456.224 1.522.455.145.541-.097.541-1.524 0-.89-.043-1.375-.13-1.463-.144-.143-.446-.175-.562-.058z" stroke-width="0"/>
</symbol><symbol viewBox="0 0 448 512" id="bell" xmlns="http://www.w3.org/2000/svg">
    <path d="M256 32v19.2c73 14.83 128 79.4 128 156.8v18.8c0 47.1 17.3 92.4 48.5 127.6l7.4 8.3c8.4 9.5 10.5 22.9 5.3 34.4S428.6 416 416 416H32c-12.6 0-24.029-7.4-29.191-18.9-5.162-11.5-3.097-24.9 5.275-34.4l7.416-8.3C46.74 319.2 64 273.9 64 226.8V208c0-77.4 54.1-141.97 128-156.8V32c0-17.67 14.3-32 32-32s32 14.33 32 32zm-32 480c-17 0-33.3-6.7-45.3-18.7S160 464.1 160 448h128c0 16.1-6.7 33.3-18.7 45.3S240.1 512 224 512z"/>
</symbol><symbol viewBox="0 0 18 19" id="call" xmlns="http://www.w3.org/2000/svg">
    <path d="M15.008 12.088c-.923 0-1.815-.15-2.648-.42a.733.733 0 00-.758.18l-1.177 1.477c-2.123-1.012-4.11-2.925-5.168-5.122L6.72 6.958a.765.765 0 00.18-.765 8.364 8.364 0 01-.42-2.648.75.75 0 00-.743-.742H3.142c-.405 0-.892.18-.892.742 0 6.968 5.797 12.758 12.758 12.758.532 0 .742-.473.742-.885V12.83a.75.75 0 00-.742-.742z"/>
</symbol><symbol viewBox="0 0 20 20" id="cart" xmlns="http://www.w3.org/2000/svg">
    <path fill-rule="evenodd" clip-rule="evenodd" d="M0 2.18v.62l1.21.045 1.212.046L4.35 8.635l1.929 5.744 5.49-.041 5.492-.041 1.283-4.14a322.35 322.35 0 001.372-4.493l.089-.351H7.656v1.406h5.235c2.879 0 5.234.056 5.234.126 0 .069-.137.544-.303 1.054-.168.511-.592 1.86-.945 3l-.64 2.07H7.214L5.312 7.266l-1.9-5.704H0v.619zm7.884 14.297c-.47.469-.49 1.003-.06 1.549a1.132 1.132 0 001.943-.27c.52-1.237-.936-2.226-1.883-1.279zm5.112-.022c-.728.775-.237 1.983.805 1.983 1.068 0 1.57-1.207.815-1.96-.492-.493-1.17-.502-1.62-.023z"/>
</symbol><symbol viewBox="0 0 24 24" id="close" xmlns="http://www.w3.org/2000/svg">
    <path d="M16.775 16.59a1 1 0 01-1.414 0l-3.536-3.535-3.535 3.536a1 1 0 11-1.414-1.414l3.535-3.536-3.535-3.535A1 1 0 018.29 6.69l3.535 3.536 3.536-3.536a1 1 0 111.414 1.415L13.24 11.64l3.535 3.536a1 1 0 010 1.414z" stroke-width="0"/>
</symbol><symbol viewBox="0 0 512 512" id="coins" xmlns="http://www.w3.org/2000/svg">
    <path d="M512 80c0 18.01-14.3 34.6-38.4 48-29.1 16.1-72.4 27.5-122.3 30.9-3.6-1.7-7.4-3.4-11.2-5C300.6 137.4 248.2 128 192 128c-8.3 0-16.4.2-24.5.6l-1.1-.6C142.3 114.6 128 98.01 128 80c0-44.18 85.1-80 192-80 106 0 192 35.82 192 80zm-351.3 81.1c10.2-.7 20.6-1.1 31.3-1.1 62.2 0 117.4 12.3 152.5 31.4 24.8 13.5 39.5 30.3 39.5 48.6 0 3.1-.7 7.9-2.1 11.7-4.6 13.2-17.8 25.3-35 35.6-.1 0-.3.1-.4.2-.3.2-.6.3-.9.5-35 19.4-90.8 32-153.6 32-59.6 0-112.94-11.3-148.16-29.1-1.87-1-3.69-2.8-5.45-2.9C14.28 274.6 0 258 0 240c0-34.8 53.43-64.5 128-75.4 10.5-1.6 21.4-2.8 32.7-3.5zm231.2 25.5c28.3-4.4 54.2-11.4 76.2-20.5 16.3-6.8 31.4-15.2 43.9-25.5V176c0 19.3-16.5 37.1-43.8 50.9-14.7 7.4-32.4 13.6-52.4 18.4.1-1.7.2-3.5.2-5.3 0-21.9-10.6-39.9-24.1-53.4zM384 336c0 18-14.3 34.6-38.4 48-1.8.1-3.6 1.9-5.4 2.9C304.9 404.7 251.6 416 192 416c-62.8 0-118.58-12.6-153.61-32C14.28 370.6 0 354 0 336v-35.4c12.45 10.3 27.62 18.7 43.93 25.5C83.44 342.6 135.8 352 192 352c56.2 0 108.6-9.4 148.1-25.9 7.8-3.2 15.3-6.9 22.4-10.9 6.1-3.4 11.8-7.2 17.2-11.2 1.5-1.1 2.9-2.3 4.3-3.4V336zm32-57.9c18.1-5 36.5-9.5 52.1-16 16.3-6.8 31.4-15.2 43.9-25.5V272c0 10.5-5 21-14.9 30.9-16.3 16.3-45 29.7-81.3 38.4.1-1.7.2-3.5.2-5.3v-57.9zM192 448c56.2 0 108.6-9.4 148.1-25.9 16.3-6.8 31.4-15.2 43.9-25.5V432c0 44.2-86 80-192 80C85.96 512 0 476.2 0 432v-35.4c12.45 10.3 27.62 18.7 43.93 25.5C83.44 438.6 135.8 448 192 448z"/>
</symbol><symbol viewBox="0 0 12 12" id="compare" xmlns="http://www.w3.org/2000/svg">
    <path fill-rule="evenodd" clip-rule="evenodd" d="M4.406.721C4.034.854 4.031.896 4.031 6c0 4.109.022 4.963.133 5.115.12.164.276.185 1.6.212 1.22.025 1.506.005 1.695-.12l.229-.149V.948L7.479.802C7.312.685 7 .658 5.91.664c-.75.004-1.425.03-1.503.057zm4.64.936c-.432.117-.421-.004-.421 4.818v4.577l.208.146c.164.115.482.146 1.488.146 1.175 0 1.3-.017 1.54-.206l.263-.206-.06-4.499c-.05-3.906-.077-4.518-.205-4.645-.116-.117-.402-.15-1.386-.164-.681-.01-1.323.005-1.426.033zM.259 4.601C.107 4.69.094 4.95.094 7.923c0 3.094.007 3.23.181 3.324.1.053.744.097 1.432.097.98 0 1.296-.032 1.46-.146.208-.146.208-.148.208-3.276 0-3.128 0-3.13-.208-3.276-.165-.115-.477-.146-1.477-.143-.697.001-1.342.046-1.432.098z"/>
</symbol><symbol viewBox="0 0 16 16" id="delete" xmlns="http://www.w3.org/2000/svg">
    <path d="M4 12.667C4 13.4 4.6 14 5.333 14h5.334C11.4 14 12 13.4 12 12.667v-8H4v8zM5.333 6h5.334v6.667H5.334V6zm5-3.333L9.668 2H6.334l-.667.667H3.334V4h9.333V2.667h-2.333z"/>
</symbol><symbol fill="none" viewBox="0 0 16 16" id="doc" xmlns="http://www.w3.org/2000/svg">
    <path fill-rule="evenodd" clip-rule="evenodd" d="M2.538 1.177l-.35.301v13.044l.354.304c.348.3.386.304 2.437.27l2.083-.034.038-.323c.02-.178-.04-.387-.133-.465-.106-.087-.863-.155-1.975-.177l-1.804-.034V1.937h9.625l.034 1.894c.037 2.016.117 2.277.647 2.108.363-.115.405-.415.359-2.558l-.04-1.903-.351-.302-.351-.301H2.889l-.35.302zm2.468 3.129c-.083.099-.132.31-.11.468l.042.288h5.125l.04-.288c.087-.607-.08-.649-2.603-.649-1.892 0-2.373.035-2.494.18zM5.03 6.58c-.086.036-.156.229-.156.428 0 .449.22.518 1.488.467.716-.03.954-.087 1.06-.256.1-.16.1-.279 0-.438-.11-.176-.34-.223-1.186-.242-.577-.013-1.12.006-1.206.042zm5.064 1.102c-1.706.654-2.694 2.163-2.567 3.924.102 1.416.829 2.49 2.125 3.138.62.31.917.381 1.595.381 1.218 0 1.935-.29 2.761-1.116.824-.824 1.116-1.543 1.116-2.75 0-1.45-.794-2.702-2.16-3.404-.67-.345-2.184-.436-2.87-.173zm.53.935c-1.162.353-1.884 1.18-2.075 2.37-.182 1.14.647 2.531 1.761 2.957.796.303 1.764.2 2.522-.268 1.135-.702 1.61-2.275 1.056-3.495-.539-1.187-2.079-1.925-3.265-1.564zm.207.987c-.114.125-.207.314-.207.418 0 .279.412.603.766.603.398 0 .609-.217.609-.625 0-.179-.068-.393-.15-.475-.224-.224-.783-.181-1.018.079zm.2 1.979c-.104.042-.157.352-.157.925 0 .817.017.866.314.941.478.12.686-.136.686-.848 0-.94-.26-1.254-.844-1.018z" fill="#A6192E"/>
</symbol><symbol fill="none" viewBox="0 0 16 16" id="dot-fill" xmlns="http://www.w3.org/2000/svg">
    <path d="M3.764 8.742l2.854 2.854 5.622-7.192" stroke="#fff" stroke-width="1.5" stroke-linecap="round"/>
</symbol><symbol viewBox="0 0 18 18" id="email" xmlns="http://www.w3.org/2000/svg">
    <path d="M14.87 2.731h-12c-.826 0-1.493.675-1.493 1.5l-.008 9c0 .825.675 1.5 1.5 1.5h12c.825 0 1.5-.675 1.5-1.5v-9c0-.825-.675-1.5-1.5-1.5zm0 3l-6 3.75-6-3.75v-1.5l6 3.75 6-3.75v1.5z"/>
</symbol><symbol viewBox="0 0 12 12" id="favorite" xmlns="http://www.w3.org/2000/svg">
    <path fill-rule="evenodd" clip-rule="evenodd" d="M2.742.846c-.525.067-1.088.273-1.486.543a2.9 2.9 0 00-.998 1.264c-.225.567-.32 1.391-.223 1.94.08.457.32 1.057.629 1.568.88 1.46 2.723 3.225 5.042 4.83l.28.194.071-.039c.093-.05.837-.595 1.21-.885 2.092-1.629 3.615-3.243 4.286-4.543.21-.407.374-.87.413-1.165.009-.068.025-.123.037-.123.01 0 .019-.172.018-.381-.002-.21-.01-.355-.02-.322-.013.046-.02.03-.034-.082A3.323 3.323 0 009.217.857 4.113 4.113 0 008.13.857c-.798.136-1.496.548-2.044 1.205L6 2.168l-.088-.105C5.364 1.406 4.666.994 3.868.858A5.562 5.562 0 002.742.846zM.009 4.078c0 .213.004.3.008.194a5.75 5.75 0 000-.387c-.004-.106-.008-.02-.008.193z"/>
</symbol><symbol viewBox="0 0 16 17" id="fb" xmlns="http://www.w3.org/2000/svg">
    <path fill-rule="evenodd" clip-rule="evenodd" d="M1.64.785c-.4.08-.75.269-1.045.563-.235.235-.377.46-.496.785l-.084.23v12.78l.084.23c.12.326.26.55.496.785.235.235.46.377.785.496l.23.084 3.195.008L8 16.755V11.254H6v-2.5h1.996l.011-1.227c.011-1.205.013-1.232.092-1.525a3.018 3.018 0 012.15-2.15c.292-.079.32-.08 1.524-.092L13 3.75v2.499l-.836.01c-.729.008-.85.017-.937.065-.213.116-.21.104-.22 1.326l-.01 1.102 1.248.009 1.248.008L13 10.003l-.494 1.235-.753.008-.753.008v5.502l1.695-.01 1.695-.01.226-.082c.683-.248 1.174-.78 1.32-1.432a1.41 1.41 0 01.067-.226c.04-.078.037-12.533-.003-12.509-.018.011-.031-.014-.031-.057 0-.12-.142-.508-.256-.702a2.448 2.448 0 00-.688-.688 2.977 2.977 0 00-.405-.188L14.39.77 8.078.764C4.606.762 1.709.771 1.64.784zM.015 8.753c0 3.446.004 4.856.008 3.133.005-1.723.005-4.543 0-6.266C.02 3.897.015 5.307.015 8.753z"/>
</symbol><symbol viewBox="0 0 20 20" id="file" xmlns="http://www.w3.org/2000/svg">
    <path d="M4.999 1.667c-.917 0-1.659.75-1.659 1.666l-.008 13.334c0 .916.742 1.666 1.658 1.666H15c.916 0 1.666-.75 1.666-1.666v-10l-5-5H5zM10.832 7.5V2.917L15.415 7.5h-4.583z"/>
</symbol><symbol viewBox="0 0 19 19" id="globe" xmlns="http://www.w3.org/2000/svg">
    <path d="M9.1 2C4.96 2 1.607 5.36 1.607 9.5c0 4.14 3.353 7.5 7.493 7.5 4.147 0 7.507-3.36 7.507-7.5 0-4.14-3.36-7.5-7.507-7.5zm5.197 4.5h-2.212a11.737 11.737 0 00-1.035-2.67 6.022 6.022 0 013.247 2.67zm-5.19-2.97c.623.9 1.11 1.898 1.433 2.97H7.675c.322-1.072.81-2.07 1.432-2.97zM3.302 11a6.181 6.181 0 01-.195-1.5c0-.518.075-1.02.195-1.5h2.535c-.06.495-.105.99-.105 1.5s.045 1.005.105 1.5H3.302zm.615 1.5H6.13c.24.938.585 1.838 1.035 2.67a5.99 5.99 0 01-3.248-2.67zm2.213-6H3.917a5.99 5.99 0 013.248-2.67c-.45.832-.795 1.732-1.035 2.67zm2.977 8.97c-.622-.9-1.11-1.898-1.432-2.97h2.865a10.565 10.565 0 01-1.433 2.97zM10.862 11h-3.51c-.067-.495-.12-.99-.12-1.5s.053-1.012.12-1.5h3.51c.068.488.12.99.12 1.5s-.052 1.005-.12 1.5zm.188 4.17c.45-.832.795-1.732 1.035-2.67h2.212a6.022 6.022 0 01-3.247 2.67zM12.377 11c.06-.495.105-.99.105-1.5s-.045-1.005-.105-1.5h2.535c.12.48.195.982.195 1.5s-.075 1.02-.195 1.5h-2.535z"/>
</symbol><symbol viewBox="0 0 128 128" id="icon_info" xmlns="http://www.w3.org/2000/svg">
    <path d="M64 0C28.656 0 0 28.656 0 64s28.656 64 64 64 64-28.656 64-64S99.344 0 64 0zm0 120C33.125 120 8 94.875 8 64S33.125 8 64 8s56 25.125 56 56-25.125 56-56 56zm0-72c-4.414 0-8 3.586-8 8v40c0 4.414 3.586 8 8 8s8-3.586 8-8V56c0-4.414-3.586-8-8-8zm0-24c-4.414 0-8 3.586-8 8s3.586 8 8 8 8-3.586 8-8-3.586-8-8-8z"/>
</symbol><symbol viewBox="0 0 16 17" id="inst" xmlns="http://www.w3.org/2000/svg">
    <path fill-rule="evenodd" clip-rule="evenodd" d="M4.219.788A4.782 4.782 0 00.467 3.484 4.484 4.484 0 00.032 5.02c-.04.357-.042 6.974-.001 7.392a4.757 4.757 0 003.587 4.181c.584.145.574.144 4.382.144s3.797 0 4.382-.144a4.783 4.783 0 002.828-2.007c.422-.64.7-1.427.75-2.123.01-.134.03-.25.044-.26.015-.009.027-1.598.027-3.532 0-1.946-.012-3.508-.027-3.499-.014.01-.035-.078-.044-.193a4.393 4.393 0 00-.428-1.495A4.762 4.762 0 0011.743.786c-.366-.04-7.17-.038-7.524.002zm-.063 1.638c-1.283.275-2.225 1.219-2.479 2.483-.04.196-.05.79-.068 3.578-.023 3.592-.014 3.891.125 4.37.235.812.78 1.492 1.53 1.912.284.159.798.319 1.149.357.414.045 6.76.045 7.174 0 .35-.038.865-.198 1.15-.357.75-.42 1.294-1.1 1.529-1.911.139-.48.148-.779.125-4.37-.018-2.793-.03-3.383-.068-3.579a3.05 3.05 0 00-.792-1.542 3.104 3.104 0 00-1.694-.94c-.212-.043-.67-.049-3.86-.047-2.963.003-3.655.01-3.82.046zm7.636 1.298c-.22.085-.427.276-.533.491-.114.234-.123.598-.02.823.09.198.273.391.462.49.137.072.196.083.44.084.238 0 .304-.011.433-.077a1.09 1.09 0 00.463-.463c.106-.217.104-.647-.004-.86-.23-.448-.78-.665-1.24-.488zm-4.5.953c-.347.058-.878.24-1.197.408-1.191.63-2 1.773-2.19 3.1-.048.33-.022 1.097.048 1.412a4.158 4.158 0 003.234 3.209c.374.08 1.252.08 1.625 0a4.158 4.158 0 003.235-3.21c.07-.314.096-1.081.048-1.412a4.169 4.169 0 00-2.19-3.099 4.563 4.563 0 00-1.226-.41 5.562 5.562 0 00-1.387.002zM.015 8.707c0 1.941.004 2.731.008 1.754.005-.976.005-2.565 0-3.53C.02 5.964.015 6.763.015 8.705zm7.6-2.455c-.996.182-1.753.849-2.04 1.798-.075.246-.085.334-.085.703 0 .37.01.457.085.703a2.523 2.523 0 004.85 0c.074-.246.085-.333.085-.703 0-.37-.01-.457-.085-.703a2.51 2.51 0 00-2.331-1.813c-.18-.007-.397 0-.48.015z"/>
</symbol><symbol viewBox="0 0 14 14" id="like_minus" xmlns="http://www.w3.org/2000/svg">
    <path fill-rule="evenodd" clip-rule="evenodd" d="M7.635 13.725c-.27-.048-.526-.225-.638-.442-.105-.205-.165-.662-.204-1.566-.054-1.259-.324-1.756-1.534-2.82l-.42-.369v-7.7l.2-.07a9.16 9.16 0 012.03-.46C7.41.255 11.28.232 11.617.27c.565.063.946.391 1.085.934a1.1 1.1 0 01-.162.86l-.095.144.114.034a1.2 1.2 0 01.842.925c.061.298-.038.665-.253.939l-.079.1.144.08c.396.225.638.711.57 1.15-.059.378-.312.733-.637.892l-.157.076.096.14a1.17 1.17 0 01-.615 1.77c-.162.05-.265.053-2.014.053-1.014 0-1.844.01-1.844.02 0 .012.075.255.165.54.397 1.25.51 1.948.439 2.708-.06.633-.266 1.397-.45 1.67-.23.34-.668.503-1.132.42zM.598 8.927a.579.579 0 01-.35-.364c-.021-.075-.028-1.307-.023-4L.232.67.296.558A.613.613 0 01.708.282C.778.27 1.517.26 2.352.26c1.601 0 1.695.006 1.864.127.043.03.106.106.14.17l.06.113v7.876l-.07.135a.4.4 0 01-.204.205l-.135.07-1.641.005C1.003 8.965.703 8.959.598 8.927z"/>
</symbol><symbol viewBox="0 0 14 14" id="like_plus" xmlns="http://www.w3.org/2000/svg">
    <path fill-rule="evenodd" clip-rule="evenodd" d="M7.533.065c-.27.049-.525.226-.637.443-.106.205-.166.661-.204 1.566-.054 1.259-.325 1.756-1.534 2.82l-.42.369v7.7l.198.07c.645.227 1.261.367 2.03.46.343.042 4.214.065 4.55.027.566-.063.947-.39 1.086-.933a1.1 1.1 0 00-.163-.86l-.095-.144.114-.034a1.2 1.2 0 00.842-.925c.062-.298-.038-.665-.253-.939l-.079-.1.144-.081c.397-.224.639-.71.57-1.148-.059-.38-.312-.734-.637-.893l-.156-.076.095-.141a1.17 1.17 0 00-.615-1.77c-.162-.05-.265-.053-2.014-.053-1.014 0-1.843-.009-1.843-.02 0-.011.074-.254.165-.54.397-1.25.51-1.948.438-2.707-.06-.633-.266-1.397-.45-1.67-.23-.34-.667-.503-1.132-.42zm-7.037 4.8a.579.579 0 00-.35.363c-.02.075-.027 1.306-.022 4l.007 3.893.064.111a.613.613 0 00.411.277c.07.012.81.022 1.644.022 1.602 0 1.696-.007 1.865-.127a.581.581 0 00.139-.17l.06-.113V5.244l-.069-.135a.4.4 0 00-.204-.204l-.135-.07-1.642-.005C.901 4.826.602 4.832.496 4.864z"/>
</symbol><symbol viewBox="0 0 18 19" id="mail" xmlns="http://www.w3.org/2000/svg">
    <path d="M14.87 3.283h-12c-.826 0-1.493.675-1.493 1.5l-.008 9c0 .825.675 1.5 1.5 1.5h12c.825 0 1.5-.675 1.5-1.5v-9c0-.825-.675-1.5-1.5-1.5zm0 3l-6 3.75-6-3.75v-1.5l6 3.75 6-3.75v1.5z"/>
</symbol><symbol fill="none" viewBox="0 0 24 24" id="menu" xmlns="http://www.w3.org/2000/svg">
    <path d="M2.537 5.453h18.926M2.537 12h11.525M2.537 18.547h18.926" stroke-width="2" stroke-linecap="round"/>
</symbol><symbol fill="none" viewBox="0 0 15 13" id="nav_arrow_left" xmlns="http://www.w3.org/2000/svg">
    <path d="M14.046 6.5H1.954m0 0l4.26 4.26M1.954 6.5l4.2-4.201" stroke-width="1.5"/>
</symbol><symbol fill="none" viewBox="0 0 15 13" id="nav_arrow_right" xmlns="http://www.w3.org/2000/svg">
    <path d="M.954 6.5h12.092m0 0l-4.26-4.26m4.26 4.26l-4.2 4.201" stroke-width="1.5"/>
</symbol><symbol viewBox="0 0 26 29" id="paperclip" xmlns="http://www.w3.org/2000/svg">
    <path d="M1.824 17.873l2.133-2.144 9.599-9.651a4.508 4.508 0 016.387.012 4.567 4.567 0 01.012 6.422l-9.598 9.654a1.002 1.002 0 01-1.423 0 1.015 1.015 0 010-1.43l9.599-9.654a2.537 2.537 0 000-3.574 2.504 2.504 0 00-3.555 0l-9.601 9.65-2.134 2.145a4.568 4.568 0 00.002 6.436 4.509 4.509 0 006.4-.001l1.778-1.788 9.954-10.008.711-.715a6.598 6.598 0 00-.07-9.223 6.512 6.512 0 00-9.173-.071L2.18 14.657a1.002 1.002 0 01-1.683-.454 1.015 1.015 0 01.26-.976L11.423 2.503a8.514 8.514 0 0112.074.014c3.332 3.35 3.338 8.781.013 12.14L12.845 25.38l-1.78 1.788a6.512 6.512 0 01-9.151-.094 6.598 6.598 0 01-.09-9.2z"/>
</symbol><symbol viewBox="0 0 24 24" id="phone" xmlns="http://www.w3.org/2000/svg">
    <path d="M20.01 15.38c-1.23 0-2.42-.2-3.53-.56a.977.977 0 00-1.01.24l-1.57 1.97c-2.83-1.35-5.48-3.9-6.89-6.83l1.95-1.66c.27-.28.35-.67.24-1.02-.37-1.11-.56-2.3-.56-3.53 0-.54-.45-.99-.99-.99H4.19C3.65 3 3 3.24 3 3.99 3 13.28 10.73 21 20.01 21c.71 0 .99-.63.99-1.18v-3.45c0-.54-.45-.99-.99-.99z"/>
</symbol><symbol fill="none" viewBox="0 0 20 21" id="play" xmlns="http://www.w3.org/2000/svg">
    <path d="M6 17.167V3.833l9.333 6.667L6 17.167z" stroke="#fff" stroke-linejoin="round"/>
</symbol><symbol fill="none" viewBox="0 0 15 14" id="plus" xmlns="http://www.w3.org/2000/svg">
    <path d="M7.5 2v10m5-5h-10" stroke-width="2" stroke-linecap="round"/>
</symbol><symbol fill="none" viewBox="0 0 24 24" id="red-point" xmlns="http://www.w3.org/2000/svg">
    <g clip-path="url(#bgclip0_47_910)">
        <path fill-rule="evenodd" clip-rule="evenodd" d="M10.734.054c-.92.095-2.162.394-3.013.724a12.942 12.942 0 00-3.255 1.88l-.443.356.625.626c.343.344.636.626.652.626.015 0 .173-.117.352-.26 1.379-1.101 3.08-1.835 4.905-2.115.635-.097 2.15-.11 2.755-.022.61.089 1.424.279 1.97.46.996.333 2.256 1.024 3.089 1.694.165.134.313.243.329.243.015 0 .309-.282.652-.626l.625-.626-.438-.351C17.682 1.173 15.503.276 13.18.048c-.57-.056-1.877-.053-2.445.006zm.54 3.162c-.342.036-1.123.161-1.301.21l-.176.046v4.346c.001 4.775-.002 4.714.285 5.3.567 1.152 2.088 1.52 3.18.768.496-.34.787-.886.892-1.667.031-.232.049-1.903.049-4.557v-4.19l-.176-.047c-.59-.157-2.127-.274-2.754-.209zm-3.338.976c-1.731.93-3.025 2.267-3.86 3.988-1.523 3.141-1.044 6.842 1.232 9.527a8.783 8.783 0 0010.512 2.216 8.796 8.796 0 004.822-6.259c.674-3.454-.8-6.99-3.742-8.975-.324-.219-1.192-.705-1.26-.705-.017 0-.03 1.841-.03 4.091 0 2.557-.019 4.238-.05 4.481-.151 1.21-.971 2.305-2.099 2.805-.755.334-1.701.403-2.469.178-.99-.29-1.747-.933-2.202-1.875-.396-.82-.371-.484-.388-5.355-.008-2.379-.03-4.324-.048-4.324a4.05 4.05 0 00-.418.207zm-5.18.152C1.63 5.736.886 7.158.43 8.79a12.123 12.123 0 00.155 6.938 12.14 12.14 0 006.908 7.403 12.117 12.117 0 007.962.374c3.922-1.186 7.042-4.373 8.119-8.295.177-.645.32-1.396.362-1.892.017-.21.05-.394.072-.407.022-.014.04-.436.04-.939 0-.503-.018-.903-.04-.89-.022.014-.054-.152-.07-.37-.158-2.049-1.16-4.461-2.595-6.245l-.356-.443-.626.625c-.344.343-.626.636-.626.652 0 .015.117.173.26.352a10.142 10.142 0 012.013 4.356c.592 2.931-.169 6.04-2.054 8.39-2.072 2.584-5.395 4.033-8.668 3.78-3.204-.247-6.023-1.891-7.806-4.553-.66-.986-1.24-2.397-1.483-3.61-.592-2.95.15-6.034 2.01-8.363.143-.179.26-.337.26-.352 0-.016-.282-.308-.625-.652l-.625-.623-.26.32zM.02 12.024c0 .515.006.732.015.482.008-.25.008-.671 0-.937s-.015-.061-.015.454zm11.675-.632c-.367.185-.487.535-.31.9.11.228.375.411.595.411.178 0 .493-.162.6-.309.222-.307.1-.8-.247-.995-.226-.127-.397-.13-.638-.007z" fill="#A6192E"/>
    </g>
    <defs>
        <clipPath id="bgclip0_47_910">
            <path fill="#fff" d="M0 0h24v24H0z"/>
        </clipPath>
    </defs>
</symbol><symbol fill="none" viewBox="0 0 26 69" id="red_line" xmlns="http://www.w3.org/2000/svg">
    <path d="M.283.818h14.774V68.78H.283V.818zM18.767.818h7V68.78h-7V.818z" fill="#A6192E"/>
</symbol><symbol viewBox="0 0 12 12" id="share" xmlns="http://www.w3.org/2000/svg">
    <path d="M9 8.04c-.38 0-.72.15-.98.385L4.455 6.35c.025-.115.045-.23.045-.35 0-.12-.02-.235-.045-.35L7.98 3.595A1.498 1.498 0 0010.5 2.5C10.5 1.67 9.83 1 9 1s-1.5.67-1.5 1.5c0 .12.02.235.045.35L4.02 4.905A1.498 1.498 0 001.5 6a1.498 1.498 0 002.52 1.095l3.56 2.08a1.41 1.41 0 00-.04.325c0 .805.655 1.46 1.46 1.46.805 0 1.46-.655 1.46-1.46 0-.805-.655-1.46-1.46-1.46z"/>
</symbol><symbol fill="none" viewBox="0 0 34 35" id="spoiler_arrow" xmlns="http://www.w3.org/2000/svg">
    <path d="M11.78 22.72l10.44-10.44m0 0h-7.355m7.355 0v7.254" stroke="#fff" stroke-width="1.5"/>
</symbol><symbol viewBox="0 0 16 15" id="star" xmlns="http://www.w3.org/2000/svg">
    <path d="M8 0l1.796 5.528h5.813l-4.703 3.416 1.796 5.528L8 11.056l-4.702 3.416 1.796-5.528L.392 5.528h5.812L8 0z"/>
</symbol><symbol fill="none" viewBox="0 0 24 24" id="traced" xmlns="http://www.w3.org/2000/svg">
    <path fill-rule="evenodd" clip-rule="evenodd" d="M10.734.054c-.92.095-2.162.394-3.013.724a12.942 12.942 0 00-3.255 1.88l-.443.356.625.626c.343.344.636.626.652.626.015 0 .173-.117.352-.26 1.379-1.101 3.08-1.835 4.905-2.115.635-.097 2.15-.11 2.755-.022.61.089 1.424.279 1.97.46.996.333 2.256 1.024 3.089 1.694.165.134.313.243.329.243.015 0 .309-.282.652-.626l.625-.626-.438-.351C17.682 1.173 15.503.276 13.18.048c-.57-.056-1.877-.053-2.445.006zm.54 3.162c-.342.036-1.123.161-1.301.21l-.176.046v4.346c.001 4.775-.002 4.714.285 5.3.567 1.152 2.088 1.52 3.18.768.496-.34.787-.886.892-1.667.031-.232.049-1.903.049-4.557v-4.19l-.176-.047c-.59-.157-2.127-.274-2.754-.209zm-3.338.976c-1.731.93-3.025 2.267-3.86 3.988-1.523 3.141-1.044 6.842 1.232 9.527a8.783 8.783 0 0010.512 2.216 8.796 8.796 0 004.822-6.259c.674-3.454-.8-6.99-3.742-8.975-.324-.219-1.192-.705-1.26-.705-.017 0-.03 1.841-.03 4.091 0 2.557-.019 4.238-.05 4.481-.151 1.21-.971 2.305-2.099 2.805-.755.334-1.701.403-2.469.178-.99-.29-1.747-.933-2.202-1.875-.396-.82-.371-.484-.388-5.355-.008-2.379-.03-4.324-.048-4.324a4.05 4.05 0 00-.418.207zm-5.18.152C1.63 5.736.886 7.158.43 8.79a12.123 12.123 0 00.155 6.938 12.14 12.14 0 006.908 7.403 12.117 12.117 0 007.962.374c3.922-1.186 7.042-4.373 8.119-8.295.177-.645.32-1.396.362-1.892.017-.21.05-.394.072-.407.022-.014.04-.436.04-.939 0-.503-.018-.903-.04-.89-.022.014-.054-.152-.07-.37-.158-2.049-1.16-4.461-2.595-6.245l-.356-.443-.626.625c-.344.343-.626.636-.626.652 0 .015.117.173.26.352a10.142 10.142 0 012.013 4.356c.592 2.931-.169 6.04-2.054 8.39-2.072 2.584-5.395 4.033-8.668 3.78-3.204-.247-6.023-1.891-7.806-4.553-.66-.986-1.24-2.397-1.483-3.61-.592-2.95.15-6.034 2.01-8.363.143-.179.26-.337.26-.352 0-.016-.282-.308-.625-.652l-.625-.623-.26.32zM.02 12.024c0 .515.006.732.015.482.008-.25.008-.671 0-.937s-.015-.061-.015.454zm11.675-.632c-.367.185-.487.535-.31.9.11.228.375.411.595.411.178 0 .493-.162.6-.309.222-.307.1-.8-.247-.995-.226-.127-.397-.13-.638-.007z" fill="#A6192E"/>
</symbol><symbol viewBox="0 0 16 17" id="whatsapp" xmlns="http://www.w3.org/2000/svg">
    <path fill-rule="evenodd" clip-rule="evenodd" d="M7.281.784a9.082 9.082 0 00-2.02.454 9.312 9.312 0 00-1.667.852A8.012 8.012 0 00.113 7.44c-.222 1.334-.087 2.808.37 4.047.144.391.442 1.014.643 1.35l.153.254-.622 1.37c-.343.754-.632 1.43-.644 1.503-.062.387.29.789.69.789.208 0 .972-.198 2.589-.672l.933-.272.332.158c.669.316 1.29.517 2.005.646a7.73 7.73 0 003.453-.126 8.172 8.172 0 002.919-1.445c.346-.267 1.087-1.009 1.355-1.355.5-.649.973-1.501 1.237-2.23.218-.605.395-1.414.433-1.979.01-.16.031-.297.046-.306.014-.01.026-.223.026-.476 0-.255-.012-.44-.027-.418-.015.025-.034-.076-.045-.25a7.153 7.153 0 00-.226-1.295 7.008 7.008 0 00-.561-1.496 7.975 7.975 0 00-3.657-3.657A7.757 7.757 0 009.172.843C8.707.773 7.7.741 7.28.784zm-.142 1.421a6.597 6.597 0 00-3.897 1.982c-.939.978-1.502 2.097-1.764 3.503-.08.431-.079 1.699.002 2.141.174.948.502 1.784.994 2.532.28.428.287.443.286.656-.001.172-.033.257-.398 1.058-.219.478-.39.877-.382.885.008.008.506-.12 1.107-.284.724-.2 1.145-.3 1.252-.3.138 0 .226.032.598.22.558.28.904.413 1.426.547.645.165 1.072.21 1.809.192.813-.02 1.429-.133 2.109-.387a6.664 6.664 0 003.59-3.194c.321-.628.498-1.15.633-1.862.092-.487.114-1.454.046-1.977a6.64 6.64 0 00-1.28-3.133c-.268-.362-.912-1.012-1.263-1.277A6.681 6.681 0 008.85 2.206a8.828 8.828 0 00-1.711 0zM5.166 5.153c-.33.117-.698.48-.888.874-.504 1.045.05 2.548 1.487 4.034 1.13 1.169 2.569 2.038 3.813 2.303.337.072.903.072 1.172 0 .49-.13.866-.442 1.097-.907.114-.231.133-.297.132-.463 0-.254-.095-.453-.322-.68-.445-.447-1.383-.773-1.76-.612-.134.058-.26.198-.484.535-.229.347-.29.404-.43.4-.255-.007-1.196-.544-1.67-.952C6.747 9.199 6.088 8.308 6.14 8.1c.01-.042.11-.19.221-.33.288-.36.357-.51.357-.783 0-.52-.32-1.254-.7-1.603-.278-.257-.564-.334-.853-.232zM.012 8.737c0 .258.005.36.011.225a6.217 6.217 0 000-.468c-.006-.124-.01-.014-.01.243z"/>
</symbol></svg>